# xmcd CD database file
#
# Track frame offsets:
#	150
#	35331
#	71510
#	113696
#	168280
#	214847
#	255804
#
# Disc length: 3993 seconds
#
# Revision: 0
# Processed by: cddbd v1.5.2PL0 Copyright (c) Steve Scherf et al.
# Submitted via: CDex 1.70beta2
#
DISCID=520f9707
DTITLE=ROMAN SCHWALLER - 50TH ANNIVERSARY ALBUM
DYEAR=2007
DGENRE=Jazz
TTITLE0=ALL THE THINGS YOU ARE
TTITLE1=HEAD AND SHOULDERS
TTITLE2=RUBY, MY DEAR
TTITLE3=BITTER SUITE
TTITLE4=ARRIVAL
TTITLE5=REMEMBERING DUKE
TTITLE6=ALL OF YOU
EXTD=YEAR: 2007
EXTT0=
EXTT1=
EXTT2=
EXTT3=
EXTT4=
EXTT5=
EXTT6=
PLAYORDER=
